<svg id="Layer_1" data-name="Layer 1" xmlns="http://www.w3.org/2000/svg" xmlns:xlink="http://www.w3.org/1999/xlink" viewBox="0 0 492.57 121.44"><defs><style>.cls-1{fill:none;}.cls-2,.cls-4{fill:#002856;}.cls-3{clip-path:url(#clip-path);}.cls-10,.cls-100,.cls-101,.cls-102,.cls-103,.cls-104,.cls-105,.cls-106,.cls-107,.cls-108,.cls-109,.cls-11,.cls-110,.cls-112,.cls-113,.cls-114,.cls-115,.cls-116,.cls-117,.cls-118,.cls-119,.cls-12,.cls-120,.cls-121,.cls-122,.cls-13,.cls-14,.cls-15,.cls-16,.cls-17,.cls-18,.cls-19,.cls-20,.cls-21,.cls-22,.cls-23,.cls-24,.cls-25,.cls-26,.cls-27,.cls-28,.cls-29,.cls-30,.cls-31,.cls-32,.cls-33,.cls-34,.cls-35,.cls-36,.cls-37,.cls-38,.cls-39,.cls-4,.cls-40,.cls-41,.cls-42,.cls-43,.cls-44,.cls-45,.cls-46,.cls-47,.cls-48,.cls-49,.cls-50,.cls-51,.cls-52,.cls-53,.cls-54,.cls-55,.cls-56,.cls-57,.cls-58,.cls-59,.cls-6,.cls-60,.cls-61,.cls-62,.cls-63,.cls-64,.cls-65,.cls-66,.cls-67,.cls-68,.cls-69,.cls-7,.cls-70,.cls-71,.cls-72,.cls-73,.cls-74,.cls-75,.cls-76,.cls-77,.cls-78,.cls-79,.cls-8,.cls-80,.cls-81,.cls-82,.cls-83,.cls-84,.cls-85,.cls-86,.cls-87,.cls-88,.cls-89,.cls-9,.cls-90,.cls-91,.cls-92,.cls-93,.cls-94,.cls-95,.cls-96,.cls-97,.cls-98,.cls-99{fill-rule:evenodd;}.cls-5{clip-path:url(#clip-path-2);}.cls-6{fill:#231f20;}.cls-7{fill:#242121;}.cls-8{fill:#262222;}.cls-9{fill:#272323;}.cls-10{fill:#282424;}.cls-11{fill:#292525;}.cls-12{fill:#2a2626;}.cls-13{fill:#2b2827;}.cls-14{fill:#2d2928;}.cls-15{fill:#2e2a29;}.cls-16{fill:#2f2b2b;}.cls-17{fill:#302c2c;}.cls-18{fill:#322e2d;}.cls-19{fill:#332f2e;}.cls-20{fill:#34302f;}.cls-21{fill:#353130;}.cls-22{fill:#363231;}.cls-23{fill:#373332;}.cls-24{fill:#393433;}.cls-25{fill:#393533;}.cls-26{fill:#3b3634;}.cls-27{fill:#3c3735;}.cls-28{fill:#3d3836;}.cls-29{fill:#3e3937;}.cls-30{fill:#3f3a37;}.cls-31{fill:#403b38;}.cls-32{fill:#413c39;}.cls-33{fill:#423d39;}.cls-34{fill:#433e3a;}.cls-35{fill:#443e3b;}.cls-36{fill:#453f3b;}.cls-37{fill:#46403c;}.cls-38{fill:#46413c;}.cls-39{fill:#47423d;}.cls-40{fill:#48423e;}.cls-41{fill:#49433e;}.cls-42{fill:#4a443f;}.cls-43{fill:#4b453f;}.cls-44{fill:#4c4640;}.cls-45{fill:#4d4640;}.cls-46{fill:#4e4741;}.cls-47{fill:#4f4842;}.cls-48{fill:#504942;}.cls-49{fill:#514943;}.cls-50{fill:#524a43;}.cls-51{fill:#524b43;}.cls-52{fill:#534b44;}.cls-53{fill:#544c44;}.cls-54{fill:#554d45;}.cls-55{fill:#564e45;}.cls-56{fill:#574e46;}.cls-57{fill:#584f46;}.cls-58{fill:#595047;}.cls-59{fill:#5a5047;}.cls-60{fill:#5a5147;}.cls-61{fill:#5b5248;}.cls-62{fill:#5c5248;}.cls-63{fill:#5d5348;}.cls-64{fill:#5e5349;}.cls-65{fill:#5f5449;}.cls-66{fill:#605549;}.cls-67{fill:#60554a;}.cls-68{fill:#61564a;}.cls-69{fill:#62574a;}.cls-70{fill:#63574b;}.cls-71{fill:#64584b;}.cls-72{fill:#65584b;}.cls-73{fill:#65594c;}.cls-74{fill:#665a4c;}.cls-75{fill:#675a4c;}.cls-76{fill:#685b4c;}.cls-77{fill:#695b4c;}.cls-78{fill:#695c4d;}.cls-79{fill:#6a5c4d;}.cls-80{fill:#6b5d4d;}.cls-81{fill:#6c5d4d;}.cls-82{fill:#6d5e4e;}.cls-83{fill:#6e5f4e;}.cls-84{fill:#6f5f4e;}.cls-85{fill:#70604e;}.cls-86{fill:#71604e;}.cls-87{fill:#71614f;}.cls-88{fill:#72614f;}.cls-89{fill:#73624f;}.cls-90{fill:#74634f;}.cls-91{fill:#75634f;}.cls-92{fill:#76644f;}.cls-93{fill:#776450;}.cls-94{fill:#776550;}.cls-95{fill:#786550;}.cls-96{fill:#796650;}.cls-97{fill:#7a6650;}.cls-98{fill:#7a6750;}.cls-99{fill:#7b6750;}.cls-100{fill:#7c6750;}.cls-101{fill:#7c6850;}.cls-102{fill:#7d6850;}.cls-103{fill:#7e6950;}.cls-104{fill:#7f6950;}.cls-105{fill:#816a50;}.cls-106{fill:#826b50;}.cls-107{fill:#826b51;}.cls-108{fill:#8c7051;}.cls-109{fill:#8c7151;}.cls-110{fill:#8d7150;}.cls-111{fill:#8e7150;}.cls-112{fill:#8e7250;}.cls-113{fill:#8f7250;}.cls-114{fill:#907250;}.cls-115{fill:#917350;}.cls-116{fill:#927450;}.cls-117{fill:#937450;}.cls-118{fill:#947450;}.cls-119{fill:#947550;}.cls-120{fill:#957550;}.cls-121{fill:#967550;}.cls-122{fill:#977650;}.cls-123{fill:#987650;}</style><clipPath id="clip-path" transform="translate(-0.27 8.2)"><rect class="cls-1" x="-51.08" y="-153.25" width="595.28" height="425.2"/></clipPath><clipPath id="clip-path-2" transform="translate(-0.27 8.2)"><path class="cls-1" d="M58.08,49.19A11.26,11.26,0,1,0,69.33,37.93,11.25,11.25,0,0,0,58.08,49.19"/></clipPath></defs><title>logo-sloganli</title><rect class="cls-2" x="430.21" y="113.41" width="62.36" height="1.9"/><rect class="cls-2" x="143.81" y="113.41" width="62.36" height="1.9"/><rect class="cls-2" x="374.33" y="113.41" width="4.76" height="1.9"/><path class="cls-2" d="M219.93,109.81l-.67-1.76h-3.62l-.7,1.76h-2.79L216,99.69h2.87l3.81,10.12Zm-2.45-7h0L216.36,106h2.19Z" transform="translate(-0.27 8.2)"/><polygon class="cls-2" points="229 118 226.32 115.2 226.32 118 223.89 118 223.89 106.86 226.32 106.86 226.32 113.6 228.86 111.12 232.21 111.12 228.74 114.31 232.42 118 229 118"/><rect class="cls-2" x="233.79" y="111.12" width="2.43" height="6.89"/><rect class="cls-2" x="238.52" y="106.86" width="2.43" height="11.14"/><path class="cls-2" d="M266.26,109.81l-.66-1.76H262l-.7,1.76h-2.79l3.89-10.12h2.87l3.81,10.12Zm-2.45-7h0L262.69,106h2.19Z" transform="translate(-0.27 8.2)"/><g class="cls-3"><path class="cls-2" d="M275.32,109.81v-3.53a2.53,2.53,0,0,0-.19-1.13.94.94,0,0,0-.92-.51,1.12,1.12,0,0,0-1,.51,2,2,0,0,0-.29,1.13v3.53h-2.43V98.67h2.43v5.12h0a2.64,2.64,0,0,1,2.21-1.1,2.38,2.38,0,0,1,1.93.78,3.18,3.18,0,0,1,.66,2.12v4.22Z" transform="translate(-0.27 8.2)"/><rect class="cls-2" x="279.76" y="106.86" width="2.43" height="11.14"/><path class="cls-2" d="M289.87,109.8V109a2.29,2.29,0,0,1-2.09,1,3.27,3.27,0,0,1-2.52-1.08,3.93,3.93,0,0,1,0-5.19,3.22,3.22,0,0,1,2.47-1.07,2.65,2.65,0,0,1,2.14.9v-.67h2.43v6.88Zm.07-3.43a1.51,1.51,0,0,0-.44-1.12,1.68,1.68,0,0,0-2.27,0,1.69,1.69,0,0,0,0,2.25,1.58,1.58,0,0,0,1.14.41,1.61,1.61,0,0,0,1.14-.41,1.5,1.5,0,0,0,.43-1.13" transform="translate(-0.27 8.2)"/><polygon class="cls-2" points="299.43 118 296.74 115.2 296.74 118 294.31 118 294.31 106.86 296.74 106.86 296.74 113.6 299.29 111.12 302.63 111.12 299.17 114.31 302.85 118 299.43 118"/><path class="cls-2" d="M327.23,109.81l-.66-1.76H323l-.71,1.76h-2.79l3.9-10.12h2.87L330,109.81Zm-2.45-7h0L323.67,106h2.19Z" transform="translate(-0.27 8.2)"/><path class="cls-2" d="M336.67,109.8V109a2.29,2.29,0,0,1-2.09,1,3.27,3.27,0,0,1-2.52-1.08,3.77,3.77,0,0,1-1-2.59,3.69,3.69,0,0,1,1-2.6,3.22,3.22,0,0,1,2.48-1.07,2.64,2.64,0,0,1,2.13.9V98.66h2.43V109.8Zm.07-3.43a1.51,1.51,0,0,0-.44-1.12,1.55,1.55,0,0,0-1.13-.44,1.54,1.54,0,0,0-1.13.44,1.67,1.67,0,0,0,0,2.25,1.61,1.61,0,0,0,1.14.41,1.58,1.58,0,0,0,1.14-.41,1.5,1.5,0,0,0,.43-1.13" transform="translate(-0.27 8.2)"/><path class="cls-2" d="M346.41,109.8V109a2.32,2.32,0,0,1-2.1,1A3.23,3.23,0,0,1,341.8,109a3.91,3.91,0,0,1,0-5.19,3.24,3.24,0,0,1,2.48-1.07,2.68,2.68,0,0,1,2.14.9v-.67h2.42v6.88Zm.06-3.43a1.48,1.48,0,0,0-.44-1.12,1.55,1.55,0,0,0-1.13-.44,1.54,1.54,0,0,0-1.13.44,1.67,1.67,0,0,0,0,2.25,1.61,1.61,0,0,0,1.14.41,1.58,1.58,0,0,0,1.14-.41,1.5,1.5,0,0,0,.43-1.13" transform="translate(-0.27 8.2)"/><rect class="cls-2" x="350.85" y="106.86" width="2.43" height="11.14"/><path class="cls-2" d="M357.76,106.77a1.35,1.35,0,0,0,1.53,1.53,1.27,1.27,0,0,0,1.18-.63h2.35a2.83,2.83,0,0,1-1.31,1.8,4.1,4.1,0,0,1-2.19.56,4.18,4.18,0,0,1-2.85-1,3.38,3.38,0,0,1-1.14-2.71,3.48,3.48,0,0,1,1.06-2.69,3.88,3.88,0,0,1,2.75-1,3.66,3.66,0,0,1,2.77,1,3.82,3.82,0,0,1,1,2.8v.25Zm2.89-1.41a1.3,1.3,0,0,0-.49-.79,1.44,1.44,0,0,0-.9-.3,1.3,1.3,0,0,0-1.45,1.09Z" transform="translate(-0.27 8.2)"/><polygon class="cls-2" points="367.09 113.13 367.09 118 364.66 118 364.66 113.13 363.86 113.13 363.86 111.12 364.66 111.12 364.66 109.05 367.09 109.05 367.09 111.12 368.48 111.12 368.48 113.13 367.09 113.13"/><path class="cls-2" d="M393,109.81l-.67-1.76h-3.62l-.7,1.76h-2.79l3.89-10.12h2.87l3.81,10.12Zm-2.45-7h0L389.38,106h2.19Z" transform="translate(-0.27 8.2)"/><path class="cls-2" d="M402.39,109.8V109a2.31,2.31,0,0,1-2.1,1,3.25,3.25,0,0,1-2.51-1.08,3.91,3.91,0,0,1,0-5.19,3.24,3.24,0,0,1,2.48-1.07,2.67,2.67,0,0,1,2.14.9V98.66h2.43V109.8Zm.06-3.43a1.48,1.48,0,0,0-.44-1.12,1.67,1.67,0,0,0-2.26,0,1.51,1.51,0,0,0-.44,1.12,1.54,1.54,0,0,0,.43,1.13,1.61,1.61,0,0,0,1.14.41,1.58,1.58,0,0,0,1.14-.41,1.5,1.5,0,0,0,.43-1.13" transform="translate(-0.27 8.2)"/><path class="cls-2" d="M412.12,109.8V109a2.31,2.31,0,0,1-2.1,1,3.25,3.25,0,0,1-2.51-1.08,3.91,3.91,0,0,1,0-5.19,3.24,3.24,0,0,1,2.48-1.07,2.67,2.67,0,0,1,2.14.9v-.67h2.43v6.88Zm.07-3.43a1.48,1.48,0,0,0-.45-1.12,1.67,1.67,0,0,0-2.26,0,1.51,1.51,0,0,0-.44,1.12,1.54,1.54,0,0,0,.43,1.13,1.8,1.8,0,0,0,2.29,0,1.54,1.54,0,0,0,.43-1.13" transform="translate(-0.27 8.2)"/><path class="cls-2" d="M424.78,106.38a3.64,3.64,0,0,1-1,2.59,3.21,3.21,0,0,1-2.47,1.06,2.64,2.64,0,0,1-2.14-.88v4.09h-2.43V102.92h2.43v.78h0a2.31,2.31,0,0,1,2.08-1,3.27,3.27,0,0,1,2.52,1.11,3.76,3.76,0,0,1,1,2.58m-2.53,0a1.48,1.48,0,0,0-.44-1.12,1.55,1.55,0,0,0-1.13-.44,1.54,1.54,0,0,0-1.13.44,1.67,1.67,0,0,0,0,2.25,1.61,1.61,0,0,0,1.14.41,1.58,1.58,0,0,0,1.14-.41,1.5,1.5,0,0,0,.43-1.13" transform="translate(-0.27 8.2)"/><rect class="cls-2" x="307.96" y="113.41" width="4.76" height="1.9"/><rect class="cls-2" x="247.34" y="113.41" width="4.76" height="1.9"/><path class="cls-4" d="M57.83,46.81V45.07A230.54,230.54,0,0,1,36,33.6c-2.53-1.46-5-2.89-7.22-4.27l-6.91,6.91c3.61.84,7.65,1.85,11.91,3,10.82,2.9,20,5.83,24.09,7.58" transform="translate(-0.27 8.2)"/><path class="cls-4" d="M80.85,27.67c1.7-3.18,8.63-15.24,10-17.47l-10-10Z" transform="translate(-0.27 8.2)"/><path class="cls-4" d="M57.83,27.68c-1.7-3.18-8.62-15.24-10-17.47l10-10Z" transform="translate(-0.27 8.2)"/><path class="cls-4" d="M79.46,54a12.16,12.16,0,0,1-.92,1.51c3.24,1,12.79,5.83,23.79,12.18,7.26,4.2,13.64,8.17,17.85,11,3.95-3.94,7.42-7.75,10.25-11-3.8-.26-13.92-2.43-25.69-5.59C92.68,58.86,82.63,55.6,79.46,54" transform="translate(-0.27 8.2)"/><path class="cls-4" d="M66.81,60.07a10.9,10.9,0,0,1-1.88-.62C64.57,61.82,59.45,72,52.59,83.89c-3.3,5.72-6.46,10.89-9.06,14.88A70.08,70.08,0,0,0,54,103.94c1-4.8,2.48-11.06,4.31-17.87,3.54-13.22,7.12-24,8.55-26" transform="translate(-0.27 8.2)"/><path class="cls-4" d="M76,58.07a10.6,10.6,0,0,1-1.56,1c2.09,2,8.17,11.25,14.81,22.75C92.62,87.59,95.54,93,97.7,97.24a111.69,111.69,0,0,0,9.35-6.73c-3.6-3.22-8.11-7.51-12.92-12.32C84.81,68.87,77.46,60.65,76,58.07" transform="translate(-0.27 8.2)"/><path class="cls-4" d="M71.29,60.19c-.42.07-.84.12-1.27.15.89,2,1.58,13.53,1.58,27.43,0,7.51-.2,14.32-.53,19.31a41.59,41.59,0,0,0,11.15-2.2c-1.57-4.69-3.46-11-5.33-18-3.49-13-5.78-24.06-5.6-26.69" transform="translate(-0.27 8.2)"/><path class="cls-4" d="M73.79,59.43A11.4,11.4,0,0,1,72,60C73.48,62.3,77,73,80.46,85.92c1.85,6.88,3.35,13.21,4.34,18a70.79,70.79,0,0,0,10.47-5.2c-2.62-4-5.83-9.27-9.19-15.08C79.41,72.11,74.39,62.15,73.79,59.43" transform="translate(-0.27 8.2)"/><path class="cls-4" d="M77.94,56.25a11.46,11.46,0,0,1-1.23,1.28c2.66,1.52,10.81,8.82,20,18,4.9,4.9,9.25,9.5,12.5,13.14,3.22-2.68,6.27-5.47,9.11-8.22-4.57-2.22-10.94-5.63-17.88-9.65-11.15-6.43-20.22-12.34-22.54-14.6" transform="translate(-0.27 8.2)"/><path class="cls-4" d="M69.45,60.37a9.7,9.7,0,0,1-2-.18c.28,2.33-2,13.54-5.59,26.84C60,94,58.11,100.2,56.55,104.88a41.49,41.49,0,0,0,11.87,2.22c-.32-5-.53-11.81-.53-19.33,0-13.83.68-25.3,1.56-27.4" transform="translate(-0.27 8.2)"/><path class="cls-4" d="M58.8,53.05a13.45,13.45,0,0,1-.55-1.66c-3.7.73-14.07,1.26-26.28,1.26-11.38,0-21.15-.46-25.43-1.12L.27,57.81s2.69,3.68,7.27,9c3-1.61,13.18-4.91,25.4-8.19,12-3.2,22.21-5.39,25.86-5.59" transform="translate(-0.27 8.2)"/><path class="cls-4" d="M131.21,66.77c4.53-5.31,7.19-9,7.19-9l-6.3-6.3c-4.16.67-14.07,1.14-25.64,1.14-12,0-22.16-.51-26-1.22a14.39,14.39,0,0,1-.48,1.49c3.72.24,13.91,2.42,25.77,5.6,12.37,3.31,22.62,6.66,25.51,8.25" transform="translate(-0.27 8.2)"/><path class="cls-4" d="M107.38,26.78,101.7,21.1q-2.16,2.23-4.52,4.59c-6.5,6.49-12.45,12-16.34,15.27V43c4-2.91,11.35-7.57,20-12.54,2.27-1.31,4.48-2.56,6.58-3.72" transform="translate(-0.27 8.2)"/><path class="cls-4" d="M130.47,49.87,119.58,39c-4,1.24-8.68,2.6-13.72,3.95-11.15,3-20.82,5.09-25,5.53a12.65,12.65,0,0,1-.14,1.64C84.75,49.43,94.76,49,106.46,49c10.26,0,19.21.37,24,.92" transform="translate(-0.27 8.2)"/><path class="cls-4" d="M116.94,36.34l-7-7c-2.29,1.38-4.75,2.84-7.32,4.32A232.26,232.26,0,0,1,80.84,45.15v1.77c4.08-1.75,13.27-4.66,24.06-7.56,4.31-1.15,8.4-2.17,12-3" transform="translate(-0.27 8.2)"/><path class="cls-4" d="M99.15,18.56,93.5,12.9Q91.78,16,89.84,19.37c-3.27,5.67-6.41,10.81-9,14.79V37.6c3.32-3.82,8.17-9,13.72-14.53,1.57-1.57,3.11-3.07,4.59-4.51" transform="translate(-0.27 8.2)"/><path class="cls-4" d="M57.83,37.47V33.92c-2.59-4-5.72-9.11-9-14.77-1.26-2.19-2.46-4.31-3.58-6.34l-5.67,5.67q2.19,2.11,4.48,4.41c5.58,5.58,10.44,10.75,13.76,14.58" transform="translate(-0.27 8.2)"/><path class="cls-4" d="M58,50.15a13.38,13.38,0,0,1-.16-1.81c-4.2-.43-13.89-2.54-25.06-5.53-5-1.34-9.64-2.68-13.6-3.92L8.24,49.83c4.87-.53,13.67-.89,23.73-.89,11.94,0,22.12.51,26,1.21" transform="translate(-0.27 8.2)"/><path class="cls-4" d="M60.18,55.53a11.81,11.81,0,0,1-.92-1.48c-3.07,1.61-13.2,4.91-25.37,8.17-11.6,3.11-21.62,5.26-25.53,5.57,2.82,3.25,6.26,7,10.18,10.93,4.21-2.88,10.55-6.82,17.74-11,11.13-6.42,20.77-11.32,23.9-12.22" transform="translate(-0.27 8.2)"/><path class="cls-4" d="M62.06,57.62a12,12,0,0,1-1.31-1.35C58.56,58.47,49.41,64.45,38.13,71c-6.87,4-13.18,7.36-17.74,9.58,2.84,2.75,5.9,5.53,9.12,8.21,3.23-3.61,7.54-8.15,12.37-13C51.27,66.36,59.55,59,62.06,57.62" transform="translate(-0.27 8.2)"/><path class="cls-4" d="M64.36,59.16a10.85,10.85,0,0,1-1.69-1C61.43,60.54,54,68.89,44.5,78.37c-4.74,4.73-9.19,9-12.77,12.17a111.57,111.57,0,0,0,9.35,6.72c2.15-4.24,5-9.54,8.31-15.22,6.82-11.81,13-21.29,15-22.88" transform="translate(-0.27 8.2)"/><path class="cls-4" d="M57.83,43V40.81C53.94,37.57,48,32,41.46,25.51c-1.54-1.53-3-3-4.41-4.48l-5.71,5.71c2.07,1.14,4.24,2.37,6.47,3.66,8.65,5,16.06,9.68,20,12.58" transform="translate(-0.27 8.2)"/><path class="cls-2" d="M58.08,49.18A11.26,11.26,0,1,1,69.33,60.44,11.25,11.25,0,0,1,58.08,49.18" transform="translate(-0.27 8.2)"/></g><g class="cls-5"><path class="cls-6" d="M29-2.47A5.74,5.74,0,0,1,34.69-8.2a5.73,5.73,0,0,1,5.73,5.73,5.72,5.72,0,0,1-5.73,5.73A5.73,5.73,0,0,1,29-2.47" transform="translate(-0.27 8.2)"/><path class="cls-7" d="M29-2.47a5.71,5.71,0,0,1,5.71-5.7,5.71,5.71,0,0,1,5.71,5.7,5.71,5.71,0,0,1-5.71,5.71A5.71,5.71,0,0,1,29-2.47" transform="translate(-0.27 8.2)"/><path class="cls-8" d="M29-2.47a5.68,5.68,0,0,1,5.68-5.68,5.68,5.68,0,0,1,5.68,5.68,5.68,5.68,0,0,1-5.68,5.69A5.68,5.68,0,0,1,29-2.47" transform="translate(-0.27 8.2)"/><path class="cls-9" d="M29-2.47a5.66,5.66,0,0,1,5.66-5.66,5.66,5.66,0,0,1,5.66,5.66,5.65,5.65,0,0,1-5.66,5.66A5.65,5.65,0,0,1,29-2.47" transform="translate(-0.27 8.2)"/><path class="cls-10" d="M29.05-2.47a5.65,5.65,0,0,1,5.64-5.64,5.64,5.64,0,0,1,5.64,5.64,5.63,5.63,0,0,1-5.64,5.64,5.64,5.64,0,0,1-5.64-5.64" transform="translate(-0.27 8.2)"/><path class="cls-11" d="M29.07-2.47a5.62,5.62,0,0,1,5.62-5.61,5.62,5.62,0,0,1,5.62,5.61,5.62,5.62,0,0,1-5.62,5.62,5.62,5.62,0,0,1-5.62-5.62" transform="translate(-0.27 8.2)"/><path class="cls-12" d="M29.1-2.47a5.59,5.59,0,0,1,5.59-5.59,5.6,5.6,0,0,1,5.6,5.59,5.6,5.6,0,0,1-5.6,5.6,5.6,5.6,0,0,1-5.59-5.6" transform="translate(-0.27 8.2)"/><path class="cls-13" d="M29.12-2.47A5.57,5.57,0,0,1,34.69-8a5.57,5.57,0,0,1,5.57,5.57A5.57,5.57,0,0,1,34.69,3.1a5.57,5.57,0,0,1-5.57-5.57" transform="translate(-0.27 8.2)"/><path class="cls-14" d="M29.14-2.47A5.56,5.56,0,0,1,34.69-8a5.55,5.55,0,0,1,5.55,5.55,5.54,5.54,0,0,1-5.55,5.55,5.55,5.55,0,0,1-5.55-5.55" transform="translate(-0.27 8.2)"/><path class="cls-15" d="M29.16-2.47A5.54,5.54,0,0,1,34.69-8a5.54,5.54,0,0,1,5.53,5.53,5.53,5.53,0,0,1-5.53,5.53,5.53,5.53,0,0,1-5.53-5.53" transform="translate(-0.27 8.2)"/><path class="cls-16" d="M29.19-2.47A5.5,5.5,0,0,1,34.69-8a5.51,5.51,0,0,1,5.51,5.5A5.51,5.51,0,0,1,34.69,3a5.51,5.51,0,0,1-5.5-5.51" transform="translate(-0.27 8.2)"/><path class="cls-17" d="M29.21-2.47a5.48,5.48,0,0,1,5.48-5.48,5.48,5.48,0,0,1,5.48,5.48A5.48,5.48,0,0,1,34.69,3a5.48,5.48,0,0,1-5.48-5.48" transform="translate(-0.27 8.2)"/><path class="cls-18" d="M29.23-2.47a5.47,5.47,0,0,1,5.46-5.46,5.46,5.46,0,0,1,5.46,5.46A5.45,5.45,0,0,1,34.69,3a5.46,5.46,0,0,1-5.46-5.46" transform="translate(-0.27 8.2)"/><path class="cls-19" d="M29.25-2.47a5.45,5.45,0,0,1,5.44-5.44,5.45,5.45,0,0,1,5.44,5.44A5.44,5.44,0,0,1,34.69,3a5.44,5.44,0,0,1-5.44-5.44" transform="translate(-0.27 8.2)"/><path class="cls-20" d="M29.28-2.47a5.41,5.41,0,0,1,5.41-5.41,5.42,5.42,0,0,1,5.42,5.41A5.42,5.42,0,0,1,34.69,3a5.42,5.42,0,0,1-5.41-5.42" transform="translate(-0.27 8.2)"/><path class="cls-21" d="M29.3-2.47a5.39,5.39,0,0,1,5.39-5.39,5.39,5.39,0,0,1,5.39,5.39,5.39,5.39,0,0,1-5.39,5.39A5.39,5.39,0,0,1,29.3-2.47" transform="translate(-0.27 8.2)"/><path class="cls-22" d="M29.32-2.47a5.37,5.37,0,0,1,5.37-5.37,5.37,5.37,0,0,1,5.37,5.37A5.36,5.36,0,0,1,34.69,2.9a5.36,5.36,0,0,1-5.37-5.37" transform="translate(-0.27 8.2)"/><path class="cls-23" d="M29.34-2.47a5.36,5.36,0,0,1,5.35-5.35A5.35,5.35,0,0,1,40-2.47a5.34,5.34,0,0,1-5.35,5.35,5.35,5.35,0,0,1-5.35-5.35" transform="translate(-0.27 8.2)"/><path class="cls-24" d="M29.37-2.47a5.32,5.32,0,0,1,5.32-5.32A5.33,5.33,0,0,1,40-2.47a5.33,5.33,0,0,1-5.33,5.33,5.33,5.33,0,0,1-5.32-5.33" transform="translate(-0.27 8.2)"/><path class="cls-25" d="M29.39-2.47a5.3,5.3,0,0,1,5.3-5.3A5.3,5.3,0,0,1,40-2.47a5.3,5.3,0,0,1-5.3,5.31,5.3,5.3,0,0,1-5.3-5.31" transform="translate(-0.27 8.2)"/><path class="cls-26" d="M29.41-2.47a5.27,5.27,0,0,1,5.28-5.28A5.27,5.27,0,0,1,40-2.47a5.27,5.27,0,0,1-5.28,5.28,5.27,5.27,0,0,1-5.28-5.28" transform="translate(-0.27 8.2)"/><path class="cls-27" d="M29.43-2.47a5.27,5.27,0,0,1,5.26-5.26A5.26,5.26,0,0,1,40-2.47a5.25,5.25,0,0,1-5.26,5.26,5.26,5.26,0,0,1-5.26-5.26" transform="translate(-0.27 8.2)"/><path class="cls-28" d="M29.45-2.47A5.24,5.24,0,0,1,34.69-7.7a5.24,5.24,0,0,1,5.24,5.23,5.25,5.25,0,0,1-5.24,5.24,5.25,5.25,0,0,1-5.24-5.24" transform="translate(-0.27 8.2)"/><path class="cls-29" d="M29.48-2.47a5.21,5.21,0,0,1,5.21-5.21,5.22,5.22,0,0,1,5.22,5.21,5.22,5.22,0,0,1-5.22,5.22,5.22,5.22,0,0,1-5.21-5.22" transform="translate(-0.27 8.2)"/><path class="cls-30" d="M29.5-2.47a5.19,5.19,0,0,1,5.19-5.19,5.19,5.19,0,0,1,5.19,5.19,5.19,5.19,0,0,1-5.19,5.19A5.19,5.19,0,0,1,29.5-2.47" transform="translate(-0.27 8.2)"/><path class="cls-31" d="M29.52-2.47a5.18,5.18,0,0,1,5.17-5.17,5.17,5.17,0,0,1,5.17,5.17A5.16,5.16,0,0,1,34.69,2.7a5.17,5.17,0,0,1-5.17-5.17" transform="translate(-0.27 8.2)"/><path class="cls-32" d="M29.54-2.47a5.16,5.16,0,0,1,5.15-5.15,5.16,5.16,0,0,1,5.15,5.15,5.15,5.15,0,0,1-5.15,5.15,5.15,5.15,0,0,1-5.15-5.15" transform="translate(-0.27 8.2)"/><path class="cls-33" d="M29.57-2.47a5.12,5.12,0,0,1,5.12-5.12,5.13,5.13,0,0,1,5.13,5.12,5.13,5.13,0,0,1-5.13,5.13,5.13,5.13,0,0,1-5.12-5.13" transform="translate(-0.27 8.2)"/><path class="cls-34" d="M29.59-2.47a5.1,5.1,0,0,1,5.1-5.1,5.1,5.1,0,0,1,5.1,5.1,5.1,5.1,0,0,1-5.1,5.1,5.1,5.1,0,0,1-5.1-5.1" transform="translate(-0.27 8.2)"/><path class="cls-35" d="M29.61-2.47a5.09,5.09,0,0,1,5.08-5.08,5.08,5.08,0,0,1,5.08,5.08,5.07,5.07,0,0,1-5.08,5.08,5.08,5.08,0,0,1-5.08-5.08" transform="translate(-0.27 8.2)"/><path class="cls-36" d="M29.63-2.47a5.06,5.06,0,0,1,5.06-5,5.06,5.06,0,0,1,5.06,5,5.06,5.06,0,0,1-5.06,5.06,5.06,5.06,0,0,1-5.06-5.06" transform="translate(-0.27 8.2)"/><path class="cls-37" d="M29.66-2.47a5,5,0,0,1,5-5,5,5,0,0,1,5,5,5,5,0,0,1-5,5,5,5,0,0,1-5-5" transform="translate(-0.27 8.2)"/><path class="cls-38" d="M29.68-2.47a5,5,0,0,1,5-5,5,5,0,0,1,5,5,5,5,0,0,1-5,5,5,5,0,0,1-5-5" transform="translate(-0.27 8.2)"/><path class="cls-39" d="M29.7-2.47a5,5,0,0,1,5-5,5,5,0,0,1,5,5,5,5,0,0,1-5,5,5,5,0,0,1-5-5" transform="translate(-0.27 8.2)"/><path class="cls-40" d="M29.72-2.47a5,5,0,0,1,5-5,5,5,0,0,1,5,5,5,5,0,0,1-5,5,5,5,0,0,1-5-5" transform="translate(-0.27 8.2)"/><path class="cls-41" d="M29.75-2.47a4.94,4.94,0,0,1,4.94-4.94,5,5,0,0,1,5,4.94,5,5,0,0,1-5,5,5,5,0,0,1-4.94-4.95" transform="translate(-0.27 8.2)"/><path class="cls-42" d="M29.77-2.47a4.92,4.92,0,0,1,4.92-4.92,4.92,4.92,0,0,1,4.92,4.92,4.93,4.93,0,0,1-4.92,4.93,4.93,4.93,0,0,1-4.92-4.93" transform="translate(-0.27 8.2)"/><path class="cls-43" d="M29.79-2.47a4.9,4.9,0,0,1,4.9-4.9,4.9,4.9,0,0,1,4.9,4.9,4.9,4.9,0,0,1-4.9,4.9,4.9,4.9,0,0,1-4.9-4.9" transform="translate(-0.27 8.2)"/><path class="cls-44" d="M29.81-2.47a4.89,4.89,0,0,1,4.88-4.88,4.88,4.88,0,0,1,4.88,4.88,4.87,4.87,0,0,1-4.88,4.88,4.88,4.88,0,0,1-4.88-4.88" transform="translate(-0.27 8.2)"/><path class="cls-45" d="M29.84-2.47a4.85,4.85,0,0,1,4.85-4.85,4.86,4.86,0,0,1,4.86,4.85,4.87,4.87,0,0,1-4.86,4.86,4.86,4.86,0,0,1-4.85-4.86" transform="translate(-0.27 8.2)"/><path class="cls-46" d="M29.86-2.47A4.83,4.83,0,0,1,34.69-7.3a4.84,4.84,0,0,1,4.84,4.83,4.84,4.84,0,0,1-4.84,4.84,4.84,4.84,0,0,1-4.83-4.84" transform="translate(-0.27 8.2)"/><path class="cls-47" d="M29.88-2.47a4.81,4.81,0,0,1,4.81-4.81A4.81,4.81,0,0,1,39.5-2.47a4.81,4.81,0,0,1-4.81,4.81,4.81,4.81,0,0,1-4.81-4.81" transform="translate(-0.27 8.2)"/><path class="cls-48" d="M29.9-2.47a4.8,4.8,0,0,1,4.79-4.79,4.79,4.79,0,0,1,4.79,4.79,4.78,4.78,0,0,1-4.79,4.79A4.79,4.79,0,0,1,29.9-2.47" transform="translate(-0.27 8.2)"/><path class="cls-49" d="M29.92-2.47a4.77,4.77,0,0,1,4.77-4.76,4.77,4.77,0,0,1,4.77,4.76A4.78,4.78,0,0,1,34.69,2.3a4.78,4.78,0,0,1-4.77-4.77" transform="translate(-0.27 8.2)"/><path class="cls-50" d="M30-2.47a4.74,4.74,0,0,1,4.74-4.74,4.74,4.74,0,0,1,4.74,4.74,4.75,4.75,0,0,1-4.74,4.75A4.75,4.75,0,0,1,30-2.47" transform="translate(-0.27 8.2)"/><path class="cls-51" d="M30-2.47a4.72,4.72,0,0,1,4.72-4.72,4.72,4.72,0,0,1,4.72,4.72,4.72,4.72,0,0,1-4.72,4.72A4.72,4.72,0,0,1,30-2.47" transform="translate(-0.27 8.2)"/><path class="cls-52" d="M30-2.47a4.71,4.71,0,0,1,4.7-4.7,4.7,4.7,0,0,1,4.7,4.7,4.69,4.69,0,0,1-4.7,4.7A4.7,4.7,0,0,1,30-2.47" transform="translate(-0.27 8.2)"/><path class="cls-53" d="M30-2.47a4.69,4.69,0,0,1,4.68-4.68,4.69,4.69,0,0,1,4.68,4.68,4.69,4.69,0,0,1-4.68,4.68A4.69,4.69,0,0,1,30-2.47" transform="translate(-0.27 8.2)"/><path class="cls-54" d="M30-2.47a4.65,4.65,0,0,1,4.65-4.65,4.66,4.66,0,0,1,4.66,4.65,4.66,4.66,0,0,1-4.66,4.66A4.66,4.66,0,0,1,30-2.47" transform="translate(-0.27 8.2)"/><path class="cls-55" d="M30.06-2.47A4.63,4.63,0,0,1,34.69-7.1a4.63,4.63,0,0,1,4.63,4.63,4.63,4.63,0,0,1-4.63,4.63,4.63,4.63,0,0,1-4.63-4.63" transform="translate(-0.27 8.2)"/><path class="cls-56" d="M30.08-2.47a4.62,4.62,0,0,1,4.61-4.61A4.61,4.61,0,0,1,39.3-2.47a4.6,4.6,0,0,1-4.61,4.61,4.61,4.61,0,0,1-4.61-4.61" transform="translate(-0.27 8.2)"/><path class="cls-57" d="M30.1-2.47a4.6,4.6,0,0,1,4.59-4.59,4.6,4.6,0,0,1,4.59,4.59,4.59,4.59,0,0,1-4.59,4.59A4.59,4.59,0,0,1,30.1-2.47" transform="translate(-0.27 8.2)"/><path class="cls-58" d="M30.13-2.47A4.56,4.56,0,0,1,34.69-7a4.57,4.57,0,0,1,4.57,4.56A4.58,4.58,0,0,1,34.69,2.1a4.57,4.57,0,0,1-4.56-4.57" transform="translate(-0.27 8.2)"/><path class="cls-59" d="M30.15-2.47A4.54,4.54,0,0,1,34.69-7a4.54,4.54,0,0,1,4.54,4.54,4.55,4.55,0,0,1-4.54,4.55,4.55,4.55,0,0,1-4.54-4.55" transform="translate(-0.27 8.2)"/><path class="cls-60" d="M30.17-2.47A4.52,4.52,0,0,1,34.69-7a4.52,4.52,0,0,1,4.52,4.52,4.52,4.52,0,0,1-4.52,4.52,4.52,4.52,0,0,1-4.52-4.52" transform="translate(-0.27 8.2)"/><path class="cls-61" d="M30.19-2.47A4.51,4.51,0,0,1,34.69-7a4.5,4.5,0,0,1,4.5,4.5A4.49,4.49,0,0,1,34.69,2a4.5,4.5,0,0,1-4.5-4.5" transform="translate(-0.27 8.2)"/><path class="cls-62" d="M30.22-2.47a4.47,4.47,0,0,1,4.47-4.47,4.48,4.48,0,0,1,4.48,4.47A4.49,4.49,0,0,1,34.69,2a4.48,4.48,0,0,1-4.47-4.48" transform="translate(-0.27 8.2)"/><path class="cls-63" d="M30.24-2.47a4.45,4.45,0,0,1,4.45-4.45,4.45,4.45,0,0,1,4.45,4.45A4.46,4.46,0,0,1,34.69,2a4.46,4.46,0,0,1-4.45-4.46" transform="translate(-0.27 8.2)"/><path class="cls-64" d="M30.26-2.47A4.43,4.43,0,0,1,34.69-6.9a4.43,4.43,0,0,1,4.43,4.43A4.43,4.43,0,0,1,34.69,2a4.43,4.43,0,0,1-4.43-4.43" transform="translate(-0.27 8.2)"/><path class="cls-65" d="M30.28-2.47a4.42,4.42,0,0,1,4.41-4.41A4.41,4.41,0,0,1,39.1-2.47a4.4,4.4,0,0,1-4.41,4.41,4.41,4.41,0,0,1-4.41-4.41" transform="translate(-0.27 8.2)"/><path class="cls-66" d="M30.3-2.47a4.39,4.39,0,0,1,4.39-4.38,4.39,4.39,0,0,1,4.39,4.38,4.39,4.39,0,0,1-4.39,4.39A4.39,4.39,0,0,1,30.3-2.47" transform="translate(-0.27 8.2)"/><path class="cls-67" d="M30.33-2.47a4.36,4.36,0,0,1,4.36-4.36,4.36,4.36,0,0,1,4.36,4.36A4.37,4.37,0,0,1,34.69,1.9a4.37,4.37,0,0,1-4.36-4.37" transform="translate(-0.27 8.2)"/><path class="cls-68" d="M30.35-2.47a4.34,4.34,0,0,1,4.34-4.34A4.34,4.34,0,0,1,39-2.47a4.34,4.34,0,0,1-4.34,4.34,4.34,4.34,0,0,1-4.34-4.34" transform="translate(-0.27 8.2)"/><path class="cls-69" d="M30.37-2.47a4.33,4.33,0,0,1,4.32-4.32A4.32,4.32,0,0,1,39-2.47a4.31,4.31,0,0,1-4.32,4.32,4.32,4.32,0,0,1-4.32-4.32" transform="translate(-0.27 8.2)"/><path class="cls-70" d="M30.39-2.47a4.31,4.31,0,0,1,4.3-4.3A4.31,4.31,0,0,1,39-2.47a4.31,4.31,0,0,1-4.3,4.3,4.31,4.31,0,0,1-4.3-4.3" transform="translate(-0.27 8.2)"/><path class="cls-71" d="M30.42-2.47a4.27,4.27,0,0,1,4.27-4.27A4.28,4.28,0,0,1,39-2.47a4.28,4.28,0,0,1-4.28,4.28,4.28,4.28,0,0,1-4.27-4.28" transform="translate(-0.27 8.2)"/><path class="cls-72" d="M30.44-2.47a4.25,4.25,0,0,1,4.25-4.25,4.25,4.25,0,0,1,4.25,4.25,4.25,4.25,0,0,1-4.25,4.25,4.25,4.25,0,0,1-4.25-4.25" transform="translate(-0.27 8.2)"/><path class="cls-73" d="M30.46-2.47A4.23,4.23,0,0,1,34.69-6.7a4.23,4.23,0,0,1,4.23,4.23,4.23,4.23,0,0,1-4.23,4.23,4.23,4.23,0,0,1-4.23-4.23" transform="translate(-0.27 8.2)"/><path class="cls-74" d="M30.48-2.47a4.22,4.22,0,0,1,4.21-4.21A4.22,4.22,0,0,1,38.9-2.47a4.21,4.21,0,0,1-4.21,4.21,4.21,4.21,0,0,1-4.21-4.21" transform="translate(-0.27 8.2)"/><path class="cls-75" d="M30.51-2.47a4.18,4.18,0,0,1,4.18-4.18,4.19,4.19,0,0,1,4.19,4.18,4.2,4.2,0,0,1-4.19,4.19,4.19,4.19,0,0,1-4.18-4.19" transform="translate(-0.27 8.2)"/><path class="cls-76" d="M30.53-2.47a4.16,4.16,0,0,1,4.16-4.16,4.16,4.16,0,0,1,4.16,4.16A4.17,4.17,0,0,1,34.69,1.7a4.17,4.17,0,0,1-4.16-4.17" transform="translate(-0.27 8.2)"/><path class="cls-77" d="M30.55-2.47a4.15,4.15,0,0,1,4.14-4.14,4.14,4.14,0,0,1,4.14,4.14,4.14,4.14,0,0,1-4.14,4.14,4.14,4.14,0,0,1-4.14-4.14" transform="translate(-0.27 8.2)"/><path class="cls-78" d="M30.57-2.47a4.13,4.13,0,0,1,4.12-4.12,4.12,4.12,0,0,1,4.12,4.12,4.11,4.11,0,0,1-4.12,4.12,4.12,4.12,0,0,1-4.12-4.12" transform="translate(-0.27 8.2)"/><path class="cls-79" d="M30.6-2.47a4.09,4.09,0,0,1,4.09-4.09,4.1,4.1,0,0,1,4.1,4.09,4.11,4.11,0,0,1-4.1,4.1,4.1,4.1,0,0,1-4.09-4.1" transform="translate(-0.27 8.2)"/><path class="cls-80" d="M30.62-2.47a4.07,4.07,0,0,1,4.07-4.07,4.07,4.07,0,0,1,4.07,4.07,4.08,4.08,0,0,1-4.07,4.08,4.08,4.08,0,0,1-4.07-4.08" transform="translate(-0.27 8.2)"/><path class="cls-81" d="M30.64-2.47a4,4,0,0,1,4-4,4,4,0,0,1,4.05,4,4,4,0,0,1-4.05,4.05,4,4,0,0,1-4-4.05" transform="translate(-0.27 8.2)"/><path class="cls-82" d="M30.66-2.47a4,4,0,0,1,4-4,4,4,0,0,1,4,4,4,4,0,0,1-4,4,4,4,0,0,1-4-4" transform="translate(-0.27 8.2)"/><path class="cls-82" d="M30.68-2.47a4,4,0,0,1,4-4,4,4,0,0,1,4,4,4,4,0,0,1-4,4,4,4,0,0,1-4-4" transform="translate(-0.27 8.2)"/><path class="cls-83" d="M30.71-2.47a4,4,0,0,1,4-4,4,4,0,0,1,4,4,4,4,0,0,1-4,4,4,4,0,0,1-4-4" transform="translate(-0.27 8.2)"/><path class="cls-84" d="M30.73-2.47a4,4,0,0,1,4-4,4,4,0,0,1,4,4,4,4,0,0,1-4,4,4,4,0,0,1-4-4" transform="translate(-0.27 8.2)"/><path class="cls-85" d="M30.75-2.47a3.94,3.94,0,0,1,3.94-3.94,3.94,3.94,0,0,1,3.94,3.94,3.93,3.93,0,0,1-3.94,3.94,3.93,3.93,0,0,1-3.94-3.94" transform="translate(-0.27 8.2)"/><path class="cls-86" d="M30.77-2.47a3.92,3.92,0,0,1,3.92-3.91,3.92,3.92,0,0,1,3.92,3.91,3.92,3.92,0,0,1-3.92,3.92,3.92,3.92,0,0,1-3.92-3.92" transform="translate(-0.27 8.2)"/><path class="cls-87" d="M30.8-2.47a3.89,3.89,0,0,1,3.89-3.89,3.9,3.9,0,0,1,3.9,3.89,3.91,3.91,0,0,1-3.9,3.9,3.9,3.9,0,0,1-3.89-3.9" transform="translate(-0.27 8.2)"/><path class="cls-88" d="M30.82-2.47a3.87,3.87,0,0,1,3.87-3.87,3.87,3.87,0,0,1,3.87,3.87A3.87,3.87,0,0,1,34.69,1.4a3.87,3.87,0,0,1-3.87-3.87" transform="translate(-0.27 8.2)"/><path class="cls-89" d="M30.84-2.47a3.85,3.85,0,0,1,3.85-3.85,3.85,3.85,0,0,1,3.85,3.85,3.85,3.85,0,0,1-3.85,3.85,3.85,3.85,0,0,1-3.85-3.85" transform="translate(-0.27 8.2)"/><path class="cls-89" d="M30.86-2.47A3.84,3.84,0,0,1,34.69-6.3a3.83,3.83,0,0,1,3.83,3.83,3.82,3.82,0,0,1-3.83,3.83,3.83,3.83,0,0,1-3.83-3.83" transform="translate(-0.27 8.2)"/><path class="cls-90" d="M30.89-2.47a3.8,3.8,0,0,1,3.8-3.8,3.81,3.81,0,0,1,3.81,3.8,3.82,3.82,0,0,1-3.81,3.81,3.81,3.81,0,0,1-3.8-3.81" transform="translate(-0.27 8.2)"/><path class="cls-91" d="M30.91-2.47a3.78,3.78,0,0,1,3.78-3.78,3.78,3.78,0,0,1,3.78,3.78,3.78,3.78,0,0,1-3.78,3.78,3.78,3.78,0,0,1-3.78-3.78" transform="translate(-0.27 8.2)"/><path class="cls-92" d="M30.93-2.47a3.76,3.76,0,0,1,3.76-3.76,3.76,3.76,0,0,1,3.76,3.76,3.76,3.76,0,0,1-3.76,3.76,3.76,3.76,0,0,1-3.76-3.76" transform="translate(-0.27 8.2)"/><path class="cls-93" d="M31-2.47a3.75,3.75,0,0,1,3.74-3.74,3.74,3.74,0,0,1,3.74,3.74,3.73,3.73,0,0,1-3.74,3.74A3.74,3.74,0,0,1,31-2.47" transform="translate(-0.27 8.2)"/><path class="cls-94" d="M31-2.47a3.71,3.71,0,0,1,3.71-3.71,3.72,3.72,0,0,1,3.72,3.71,3.73,3.73,0,0,1-3.72,3.72A3.72,3.72,0,0,1,31-2.47" transform="translate(-0.27 8.2)"/><path class="cls-95" d="M31-2.47a3.69,3.69,0,0,1,3.69-3.69,3.69,3.69,0,0,1,3.69,3.69,3.69,3.69,0,0,1-3.69,3.69A3.69,3.69,0,0,1,31-2.47" transform="translate(-0.27 8.2)"/><path class="cls-96" d="M31-2.47a3.67,3.67,0,0,1,3.67-3.67,3.67,3.67,0,0,1,3.67,3.67A3.67,3.67,0,0,1,34.69,1.2,3.67,3.67,0,0,1,31-2.47" transform="translate(-0.27 8.2)"/><path class="cls-97" d="M31-2.47a3.66,3.66,0,0,1,3.65-3.65,3.65,3.65,0,0,1,3.65,3.65,3.64,3.64,0,0,1-3.65,3.65A3.65,3.65,0,0,1,31-2.47" transform="translate(-0.27 8.2)"/><path class="cls-98" d="M31.07-2.47a3.62,3.62,0,0,1,3.62-3.62,3.63,3.63,0,0,1,3.63,3.62,3.64,3.64,0,0,1-3.63,3.63,3.63,3.63,0,0,1-3.62-3.63" transform="translate(-0.27 8.2)"/><path class="cls-99" d="M31.09-2.47a3.6,3.6,0,0,1,3.6-3.6,3.6,3.6,0,0,1,3.6,3.6,3.61,3.61,0,0,1-3.6,3.61,3.61,3.61,0,0,1-3.6-3.61" transform="translate(-0.27 8.2)"/><path class="cls-100" d="M31.11-2.47A3.58,3.58,0,0,1,34.69-6a3.58,3.58,0,0,1,3.58,3.58,3.58,3.58,0,0,1-3.58,3.58,3.58,3.58,0,0,1-3.58-3.58" transform="translate(-0.27 8.2)"/><path class="cls-101" d="M31.13-2.47A3.57,3.57,0,0,1,34.69-6a3.56,3.56,0,0,1,3.56,3.56,3.56,3.56,0,0,1-3.56,3.56,3.56,3.56,0,0,1-3.56-3.56" transform="translate(-0.27 8.2)"/><path class="cls-102" d="M31.16-2.47A3.53,3.53,0,0,1,34.69-6a3.54,3.54,0,0,1,3.54,3.53,3.55,3.55,0,0,1-3.54,3.54,3.54,3.54,0,0,1-3.53-3.54" transform="translate(-0.27 8.2)"/><path class="cls-103" d="M31.18-2.47A3.51,3.51,0,0,1,34.69-6a3.52,3.52,0,0,1,3.52,3.51,3.53,3.53,0,0,1-3.52,3.52,3.52,3.52,0,0,1-3.51-3.52" transform="translate(-0.27 8.2)"/><path class="cls-104" d="M31.2-2.47A3.49,3.49,0,0,1,34.69-6a3.49,3.49,0,0,1,3.49,3.49A3.49,3.49,0,0,1,34.69,1,3.49,3.49,0,0,1,31.2-2.47" transform="translate(-0.27 8.2)"/><path class="cls-104" d="M31.22-2.47a3.48,3.48,0,0,1,3.47-3.47,3.47,3.47,0,0,1,3.47,3.47A3.47,3.47,0,0,1,34.69,1a3.47,3.47,0,0,1-3.47-3.47" transform="translate(-0.27 8.2)"/><path class="cls-105" d="M31.27-2.47a3.42,3.42,0,0,1,3.42-3.42,3.43,3.43,0,0,1,3.43,3.42A3.44,3.44,0,0,1,34.69,1a3.43,3.43,0,0,1-3.42-3.43" transform="translate(-0.27 8.2)"/><path class="cls-106" d="M31.29-2.47a3.4,3.4,0,0,1,3.4-3.4,3.4,3.4,0,0,1,3.4,3.4,3.4,3.4,0,0,1-3.4,3.4,3.4,3.4,0,0,1-3.4-3.4" transform="translate(-0.27 8.2)"/><path class="cls-107" d="M31.31-2.47a3.38,3.38,0,0,1,3.38-3.38,3.38,3.38,0,0,1,3.38,3.38A3.38,3.38,0,0,1,34.69.91a3.38,3.38,0,0,1-3.38-3.38" transform="translate(-0.27 8.2)"/><path class="cls-108" d="M31.6-2.47a3.1,3.1,0,0,1,3.09-3.09,3.09,3.09,0,0,1,3.09,3.09A3.09,3.09,0,0,1,34.69.62,3.09,3.09,0,0,1,31.6-2.47" transform="translate(-0.27 8.2)"/><path class="cls-109" d="M31.62-2.47a3.07,3.07,0,0,1,3.07-3.06,3.07,3.07,0,0,1,3.07,3.06A3.07,3.07,0,0,1,34.69.6a3.07,3.07,0,0,1-3.07-3.07" transform="translate(-0.27 8.2)"/><path class="cls-110" d="M31.65-2.47a3,3,0,0,1,3-3,3,3,0,0,1,3.05,3A3.06,3.06,0,0,1,34.69.58a3,3,0,0,1-3-3.05" transform="translate(-0.27 8.2)"/><path class="cls-111" d="M31.67-2.47a3,3,0,0,1,3-3,3,3,0,0,1,3,3,3,3,0,0,1-3,3,3,3,0,0,1-3-3" transform="translate(-0.27 8.2)"/><path class="cls-112" d="M31.69-2.47a3,3,0,0,1,3-3,3,3,0,0,1,3,3,3,3,0,0,1-3,3,3,3,0,0,1-3-3" transform="translate(-0.27 8.2)"/><path class="cls-113" d="M31.71-2.47a3,3,0,0,1,3-3,3,3,0,0,1,3,3,3,3,0,0,1-3,3,3,3,0,0,1-3-3" transform="translate(-0.27 8.2)"/><path class="cls-114" d="M31.74-2.47a3,3,0,0,1,2.95-2.95,3,3,0,0,1,3,2.95,3,3,0,0,1-3,3,3,3,0,0,1-2.95-3" transform="translate(-0.27 8.2)"/><path class="cls-115" d="M31.76-2.47A2.93,2.93,0,0,1,34.69-5.4a2.93,2.93,0,0,1,2.93,2.93A2.93,2.93,0,0,1,34.69.46a2.93,2.93,0,0,1-2.93-2.93" transform="translate(-0.27 8.2)"/><path class="cls-115" d="M31.78-2.47a2.91,2.91,0,0,1,2.91-2.91A2.91,2.91,0,0,1,37.6-2.47,2.91,2.91,0,0,1,34.69.44a2.91,2.91,0,0,1-2.91-2.91" transform="translate(-0.27 8.2)"/><path class="cls-116" d="M31.8-2.47a2.9,2.9,0,0,1,2.89-2.89,2.89,2.89,0,0,1,2.89,2.89A2.89,2.89,0,0,1,34.69.42,2.89,2.89,0,0,1,31.8-2.47" transform="translate(-0.27 8.2)"/><path class="cls-117" d="M31.83-2.47a2.86,2.86,0,0,1,2.86-2.86,2.87,2.87,0,0,1,2.87,2.86A2.88,2.88,0,0,1,34.69.4a2.87,2.87,0,0,1-2.86-2.87" transform="translate(-0.27 8.2)"/><path class="cls-118" d="M31.85-2.47a2.84,2.84,0,0,1,2.84-2.84,2.84,2.84,0,0,1,2.84,2.84A2.85,2.85,0,0,1,34.69.38a2.85,2.85,0,0,1-2.84-2.85" transform="translate(-0.27 8.2)"/><path class="cls-119" d="M31.87-2.47a2.82,2.82,0,0,1,2.82-2.82,2.82,2.82,0,0,1,2.82,2.82A2.82,2.82,0,0,1,34.69.35a2.82,2.82,0,0,1-2.82-2.82" transform="translate(-0.27 8.2)"/><path class="cls-120" d="M31.89-2.47a2.81,2.81,0,0,1,2.8-2.8,2.8,2.8,0,0,1,2.8,2.8,2.8,2.8,0,0,1-2.8,2.8,2.8,2.8,0,0,1-2.8-2.8" transform="translate(-0.27 8.2)"/><path class="cls-121" d="M31.92-2.47a2.77,2.77,0,0,1,2.77-2.77,2.77,2.77,0,0,1,2.78,2.77A2.77,2.77,0,0,1,34.69.31a2.77,2.77,0,0,1-2.77-2.78" transform="translate(-0.27 8.2)"/><path class="cls-122" d="M31.94-2.47a2.75,2.75,0,0,1,2.75-2.75,2.75,2.75,0,0,1,2.75,2.75A2.76,2.76,0,0,1,34.69.29a2.76,2.76,0,0,1-2.75-2.76" transform="translate(-0.27 8.2)"/><path class="cls-122" d="M32-2.47A2.73,2.73,0,0,1,34.69-5.2a2.73,2.73,0,0,1,2.73,2.73A2.73,2.73,0,0,1,34.69.26,2.73,2.73,0,0,1,32-2.47" transform="translate(-0.27 8.2)"/><path class="cls-123" d="M32-2.47a2.72,2.72,0,0,1,2.71-2.71A2.71,2.71,0,0,1,37.4-2.47,2.71,2.71,0,0,1,34.69.24,2.71,2.71,0,0,1,32-2.47" transform="translate(-0.27 8.2)"/></g><path class="cls-2" d="M147.69,76.77c0-5.44,0-6.44-.07-7.59s-.35-1.79-1.54-2a7.48,7.48,0,0,0-1.39-.1c-.4,0-.61-.08-.61-.33s.25-.32.79-.32c1.89,0,4.15.11,5.22.11.86,0,3.12-.11,4.4-.11.54,0,.79.07.79.32s-.21.33-.57.33a5.53,5.53,0,0,0-1,.1c-1,.18-1.25.79-1.32,2s-.07,2.15-.07,7.59v5c0,5.19,1,7.37,2.79,8.81a6.62,6.62,0,0,0,4.47,1.46,7,7,0,0,0,4.94-1.93c2-2,2.08-5.19,2.08-8.88V76.77c0-5.44,0-6.44-.08-7.59s-.35-1.79-1.54-2a7,7,0,0,0-1.28-.1c-.4,0-.61-.08-.61-.33s.25-.32.75-.32c1.82,0,4.08.11,4.12.11.43,0,2.68-.11,4.08-.11.5,0,.75.07.75.32s-.22.33-.65.33a5.53,5.53,0,0,0-1,.1c-1,.18-1.25.79-1.32,2s-.07,2.15-.07,7.59V80.6c0,4-.39,8.2-3.4,10.77A10.65,10.65,0,0,1,158.83,94c-1.9,0-5.34-.11-8-2.47-1.83-1.65-3.19-4.29-3.19-9.48ZM153.89,62a1.62,1.62,0,0,1,1.64-1.64,1.54,1.54,0,0,1,1.68,1.54,1.69,1.69,0,0,1-1.71,1.79A1.59,1.59,0,0,1,153.89,62m7.55,0a1.64,1.64,0,0,1,1.64-1.68,1.56,1.56,0,0,1,1.69,1.58,1.69,1.69,0,0,1-1.72,1.79A1.59,1.59,0,0,1,161.44,62" transform="translate(-0.27 8.2)"/><path class="cls-2" d="M186,88.58c.08,2.79.54,3.72,1.26,4a5.57,5.57,0,0,0,1.86.26c.39,0,.61.07.61.28s-.33.36-.83.36c-2.32,0-3.75-.11-4.43-.11-.33,0-2,.11-3.87.11-.46,0-.79,0-.79-.36s.22-.28.58-.28a6.57,6.57,0,0,0,1.61-.18c.93-.29,1.07-1.33,1.11-4.44L183.38,67c0-.72.1-1.22.46-1.22s.72.47,1.33,1.11c.43.47,5.87,6.3,11.09,11.49,2.44,2.44,7.27,7.59,7.88,8.16h.17L204,70.47c0-2.18-.36-2.86-1.22-3.22a6,6,0,0,0-1.9-.21c-.43,0-.57-.11-.57-.33s.39-.32.93-.32c1.86,0,3.58.11,4.33.11.39,0,1.76-.11,3.51-.11.46,0,.82,0,.82.32s-.21.33-.64.33a4.22,4.22,0,0,0-1.08.1c-1,.29-1.28,1-1.32,3l-.39,22.58c0,.79-.15,1.11-.47,1.11s-.82-.4-1.22-.79c-2.25-2.15-6.83-6.84-10.55-10.52-3.91-3.87-7.88-8.34-8.52-9h-.11Z" transform="translate(-0.27 8.2)"/><path class="cls-2" d="M222.77,76.77c0-5.44,0-6.44-.07-7.59s-.43-1.82-1.22-2a5,5,0,0,0-1.29-.14c-.36,0-.57-.07-.57-.36s.29-.29.86-.29c1.36,0,3.61.11,4.65.11s3-.11,4.37-.11c.46,0,.75.07.75.29s-.22.36-.57.36a6.19,6.19,0,0,0-1.08.1c-1,.18-1.25.79-1.32,2s-.07,2.15-.07,7.59v6.3c0,3.47,0,6.3.14,7.84.11,1,.36,1.61,1.43,1.75a15.4,15.4,0,0,0,1.83.15c.39,0,.57.1.57.28s-.29.36-.68.36c-2.36,0-4.62-.11-5.58-.11s-3.08.11-4.51.11c-.47,0-.72-.11-.72-.36s.14-.28.57-.28a5.85,5.85,0,0,0,1.29-.15c.72-.14.93-.75,1-1.79.18-1.5.18-4.33.18-7.8ZM223,61.63a2,2,0,0,1,2-2.07,1.91,1.91,0,0,1,2,1.93,2,2,0,0,1-2,2.15,1.93,1.93,0,0,1-2-2" transform="translate(-0.27 8.2)"/><path class="cls-2" d="M243.41,69.9c-.82-2-1.43-2.36-2.72-2.72A5.6,5.6,0,0,0,239.3,67c-.33,0-.43-.11-.43-.33s.39-.32.93-.32c1.89,0,3.93.11,5.19.11.89,0,2.61-.11,4.4-.11.43,0,.82.07.82.32s-.21.33-.53.33a2.53,2.53,0,0,0-1.4.25.86.86,0,0,0-.36.75,10.49,10.49,0,0,0,.83,2.76L254.9,87H255c1.54-3.93,6.2-15.46,7.06-17.82a4.71,4.71,0,0,0,.32-1.32.68.68,0,0,0-.47-.68,4.53,4.53,0,0,0-1.43-.18c-.32,0-.61,0-.61-.29s.32-.36,1-.36c1.79,0,3.3.11,3.76.11s2.29-.11,3.37-.11c.46,0,.75.07.75.32s-.22.33-.58.33a3.11,3.11,0,0,0-1.75.43c-.46.32-1,.93-2,3.22-1.39,3.36-2.36,5.29-4.29,9.7-2.29,5.22-4,9.12-4.76,10.91-.93,2.08-1.15,2.65-1.65,2.65s-.68-.5-1.36-2.18Z" transform="translate(-0.27 8.2)"/><path class="cls-2" d="M280.38,76.77c0-5.44,0-6.44-.08-7.59s-.35-1.79-1.53-2a7.67,7.67,0,0,0-1.4-.1c-.39,0-.61-.08-.61-.33s.25-.32.79-.32c1,0,2,0,2.9,0s1.75.07,2.25.07c1.15,0,8.27,0,8.95,0a14.76,14.76,0,0,0,1.54-.21,3,3,0,0,1,.57-.14c.18,0,.22.14.22.32a23.07,23.07,0,0,0-.29,2.32c0,.36-.11,1.94-.18,2.37,0,.17-.11.39-.36.39s-.32-.18-.32-.5a3.8,3.8,0,0,0-.21-1.29c-.25-.64-.61-1.07-2.4-1.29-.61-.07-4.37-.14-5.08-.14-.18,0-.25.11-.25.36v9c0,.25,0,.4.25.4.78,0,4.9,0,5.72-.08a2.53,2.53,0,0,0,1.72-.53c.25-.29.39-.47.57-.47s.25.07.25.29-.14.79-.28,2.61c0,.72-.15,2.15-.15,2.4s0,.68-.32.68a.28.28,0,0,1-.32-.32,11.45,11.45,0,0,0-.14-1.29c-.18-.72-.68-1.26-2-1.4-.68-.07-4.22-.11-5.08-.11-.18,0-.21.15-.21.36v2.83c0,1.22,0,4.51,0,5.55.07,2.47.64,3,4.29,3a9.12,9.12,0,0,0,3.37-.43c.93-.43,1.36-1.18,1.61-2.64.07-.4.14-.54.39-.54s.29.29.29.64a28,28,0,0,1-.47,4c-.25.93-.57.93-1.93.93-2.69,0-4.66-.08-6.19-.11s-2.65-.11-3.73-.11c-.39,0-1.18,0-2,0s-1.75.07-2.47.07c-.46,0-.71-.11-.71-.36s.14-.28.57-.28a5.85,5.85,0,0,0,1.29-.15c.72-.14.89-.93,1-2,.18-1.5.18-4.33.18-7.62Z" transform="translate(-0.27 8.2)"/><path class="cls-2" d="M311.32,76.77c0-5.44,0-6.44-.07-7.59s-.36-1.79-1.54-2a7.48,7.48,0,0,0-1.39-.1c-.4,0-.61-.07-.61-.33s.25-.32.78-.32c1.9,0,4.16.11,4.91.11,1.21,0,3.93-.11,5-.11A11.48,11.48,0,0,1,325,67.93a6.21,6.21,0,0,1,2.43,4.9c0,2.65-1.11,5.09-4.72,8,3.18,4,5.65,7.2,7.77,9.41a7.15,7.15,0,0,0,4,2.44,5.93,5.93,0,0,0,1,.11c.28,0,.43.1.43.28s-.25.36-.68.36h-3.4a7.28,7.28,0,0,1-3.83-.68c-1.54-.82-2.9-2.51-4.91-5.26-1.43-2-3.07-4.4-3.54-4.94a.73.73,0,0,0-.64-.25l-3.12-.07c-.18,0-.28.07-.28.28V83c0,3.33,0,6.16.17,7.66.11,1,.33,1.83,1.4,2a17,17,0,0,0,1.75.15c.29,0,.43.1.43.28s-.25.36-.71.36c-2.08,0-4.73-.11-5.26-.11s-2.94.11-4.37.11c-.47,0-.72-.11-.72-.36s.15-.28.58-.28a6,6,0,0,0,1.29-.15c.71-.14.89-.93,1-2,.18-1.5.18-4.33.18-7.62Zm4.23,2.83c0,.39.07.53.32.64a9.42,9.42,0,0,0,2.72.36,3.56,3.56,0,0,0,2.54-.61c1.07-.78,2.11-2.43,2.11-5.37,0-5.08-3.36-6.55-5.48-6.55a7.6,7.6,0,0,0-1.89.15c-.25.07-.32.21-.32.5Z" transform="translate(-0.27 8.2)"/><path class="cls-2" d="M342.46,93c-.57-.25-.68-.43-.68-1.22,0-2,.15-4.11.18-4.69s.15-.93.43-.93.36.33.36.61a7.5,7.5,0,0,0,.32,1.83,4.93,4.93,0,0,0,5.12,3.61c3.22,0,4.8-2.18,4.8-4.08s-.54-3.4-3.51-5.72l-1.65-1.29c-3.93-3.08-5.29-5.59-5.29-8.49,0-3.93,3.29-6.76,8.26-6.76a17.3,17.3,0,0,1,4.76.61c.33.07.5.18.5.43,0,.46-.14,1.5-.14,4.29,0,.79-.11,1.08-.39,1.08s-.36-.22-.36-.65a4.34,4.34,0,0,0-.93-2.36,4.54,4.54,0,0,0-3.9-1.75c-2.65,0-4.26,1.54-4.26,3.68,0,1.65.82,2.9,3.79,5.16l1,.75c4.33,3.26,5.86,5.73,5.86,9.12a7.2,7.2,0,0,1-3.36,6.23A10.3,10.3,0,0,1,347.69,94a12.41,12.41,0,0,1-5.23-.93" transform="translate(-0.27 8.2)"/><path class="cls-2" d="M372.17,76.77c0-5.44,0-6.44-.07-7.59s-.43-1.82-1.22-2a5,5,0,0,0-1.29-.14c-.35,0-.57-.07-.57-.36s.29-.29.86-.29c1.36,0,3.62.11,4.65.11s3-.11,4.37-.11c.46,0,.75.07.75.29s-.21.36-.57.36a6.19,6.19,0,0,0-1.08.1c-1,.18-1.25.79-1.32,2s-.07,2.15-.07,7.59v6.3c0,3.47,0,6.3.14,7.84.11,1,.36,1.61,1.43,1.75a15.4,15.4,0,0,0,1.83.15c.39,0,.57.1.57.28s-.28.36-.68.36c-2.36,0-4.62-.11-5.58-.11s-3.08.11-4.51.11c-.47,0-.72-.11-.72-.36s.15-.28.58-.28a5.83,5.83,0,0,0,1.28-.15c.72-.14.93-.75,1-1.79.18-1.5.18-4.33.18-7.8Zm.22-15.14a2,2,0,0,1,2-2.07,1.9,1.9,0,0,1,2,1.93,2,2,0,0,1-2,2.15,1.92,1.92,0,0,1-2-2" transform="translate(-0.27 8.2)"/><path class="cls-2" d="M400.58,68.4l-5.33.14c-2.07.07-2.93.25-3.47,1a4,4,0,0,0-.61,1.25c-.07.29-.18.43-.39.43s-.32-.18-.32-.57c0-.58.68-3.83.75-4.12.1-.46.21-.68.43-.68a7.89,7.89,0,0,0,1.54.43c1,.11,2.39.18,3.57.18h14.18a17.47,17.47,0,0,0,2.47-.18,7.94,7.94,0,0,1,1-.18c.25,0,.29.22.29.75,0,.76-.11,3.22-.11,4.16,0,.35-.11.57-.32.57s-.36-.18-.39-.72l0-.39c-.07-.93-1-1.93-4.22-2l-4.51-.1V83.07c0,3.29,0,6.12.18,7.66.1,1,.32,1.79,1.39,1.93a15.4,15.4,0,0,0,1.83.15c.39,0,.57.1.57.28s-.29.36-.68.36c-2.36,0-4.62-.11-5.62-.11-.82,0-3.08.11-4.51.11-.46,0-.71-.11-.71-.36s.14-.28.57-.28a5.85,5.85,0,0,0,1.29-.15c.71-.14.93-.93,1-2,.17-1.5.17-4.33.17-7.62Z" transform="translate(-0.27 8.2)"/><path class="cls-2" d="M428.71,76.77c0-5.44,0-6.44-.07-7.59s-.36-1.79-1.54-2a7.6,7.6,0,0,0-1.4-.1c-.39,0-.6-.08-.6-.33s.25-.32.78-.32c1,0,2,0,2.9,0s1.76.07,2.26.07c1.14,0,8.26,0,8.94,0a14.37,14.37,0,0,0,1.54-.21,3.06,3.06,0,0,1,.58-.14c.17,0,.21.14.21.32a23.07,23.07,0,0,0-.29,2.32c0,.36-.1,1.94-.17,2.37,0,.17-.11.39-.36.39s-.32-.18-.32-.5a3.85,3.85,0,0,0-.22-1.29c-.25-.64-.61-1.07-2.4-1.29-.61-.07-4.36-.14-5.08-.14-.18,0-.25.11-.25.36v9c0,.25,0,.4.25.4.79,0,4.9,0,5.73-.08a2.5,2.5,0,0,0,1.71-.53c.26-.29.4-.47.58-.47s.25.07.25.29-.15.79-.29,2.61c0,.72-.14,2.15-.14,2.4s0,.68-.32.68a.29.29,0,0,1-.33-.32,8.15,8.15,0,0,0-.14-1.29c-.18-.72-.68-1.26-2-1.4-.68-.07-4.23-.11-5.09-.11-.17,0-.21.15-.21.36v2.83c0,1.22,0,4.51,0,5.55.07,2.47.64,3,4.29,3a9.07,9.07,0,0,0,3.37-.43c.93-.43,1.36-1.18,1.61-2.64.07-.4.14-.54.39-.54s.29.29.29.64a28,28,0,0,1-.47,4c-.25.93-.57.93-1.93.93-2.68,0-4.65-.08-6.19-.11s-2.65-.11-3.72-.11c-.4,0-1.18,0-2,0s-1.76.07-2.47.07c-.47,0-.72-.11-.72-.36s.15-.28.58-.28a5.83,5.83,0,0,0,1.28-.15c.72-.14.9-.93,1-2,.18-1.5.18-4.33.18-7.62Z" transform="translate(-0.27 8.2)"/><path class="cls-2" d="M456.55,93c-.57-.25-.68-.43-.68-1.22,0-2,.15-4.11.18-4.69s.15-.93.43-.93.36.33.36.61a7.5,7.5,0,0,0,.32,1.83,4.93,4.93,0,0,0,5.12,3.61c3.22,0,4.8-2.18,4.8-4.08s-.54-3.4-3.51-5.72l-1.65-1.29c-3.93-3.08-5.29-5.59-5.29-8.49,0-3.93,3.29-6.76,8.26-6.76a17.3,17.3,0,0,1,4.76.61c.33.07.5.18.5.43,0,.46-.14,1.5-.14,4.29,0,.79-.11,1.08-.39,1.08s-.36-.22-.36-.65a4.34,4.34,0,0,0-.93-2.36,4.54,4.54,0,0,0-3.9-1.75c-2.65,0-4.26,1.54-4.26,3.68,0,1.65.82,2.9,3.79,5.16l1,.75c4.33,3.26,5.86,5.73,5.86,9.12a7.2,7.2,0,0,1-3.36,6.23A10.3,10.3,0,0,1,461.78,94a12.41,12.41,0,0,1-5.23-.93" transform="translate(-0.27 8.2)"/><path class="cls-2" d="M484.43,76.77c0-5.44,0-6.44-.07-7.59s-.43-1.82-1.22-2a4.93,4.93,0,0,0-1.28-.14c-.36,0-.58-.07-.58-.36s.29-.29.86-.29c1.36,0,3.62.11,4.65.11s3-.11,4.37-.11c.47,0,.75.07.75.29s-.21.36-.57.36a6.09,6.09,0,0,0-1.07.1c-1,.18-1.26.79-1.33,2s-.07,2.15-.07,7.59v6.3c0,3.47,0,6.3.14,7.84.11,1,.36,1.61,1.43,1.75a15.57,15.57,0,0,0,1.83.15c.39,0,.57.1.57.28s-.28.36-.68.36c-2.36,0-4.61-.11-5.58-.11-.82,0-3.08.11-4.51.11-.47,0-.72-.11-.72-.36s.15-.28.58-.28a6,6,0,0,0,1.29-.15c.71-.14.93-.75,1-1.79.18-1.5.18-4.33.18-7.8Zm.22-15.14a2,2,0,0,1,2-2.07,1.9,1.9,0,0,1,2,1.93,2,2,0,0,1-2,2.15,1.92,1.92,0,0,1-2-2" transform="translate(-0.27 8.2)"/><path class="cls-2" d="M155.77,31.9H156c1.78-1.93,9.44-9.67,11-11.44s2.63-3,2.63-3.9c0-.58-.21-.94-.74-1s-.68-.21-.68-.52.26-.47.84-.47c1.1,0,4,.16,5.4.16,1.63,0,4.51-.16,6.14-.16.52,0,.89.1.89.47s-.26.46-.79.46a10.2,10.2,0,0,0-3,.58,16.53,16.53,0,0,0-5.66,3.9c-1.63,1.56-9.55,9.36-11.33,11.23,1.89,2.44,12.17,13.42,14.21,15.34,2.31,2.19,4.67,4.53,7.5,5.62a9.24,9.24,0,0,0,3.25.78c.37,0,.68.1.68.41s-.26.52-1.26.52h-4.56c-1.57,0-2.51,0-3.62-.1-2.83-.26-4.24-1.4-6.5-3.38s-12.64-14-13.74-15.55L156,34h-.27v4.73c0,4.79,0,8.89.16,11.13.11,1.46.58,2.6,1.89,2.81a23.2,23.2,0,0,0,2.57.21c.42,0,.68.15.68.41s-.42.52-1,.52c-2.93,0-6.24-.15-7.55-.15s-4.51.15-6.61.15c-.68,0-1-.15-1-.52s.21-.41.84-.41a8.82,8.82,0,0,0,1.88-.21c1-.21,1.31-1.35,1.52-2.86.27-2.19.27-6.29.27-11.08V29.61c0-7.9,0-9.36-.11-11s-.52-2.61-2.25-3a11.19,11.19,0,0,0-2.05-.16c-.58,0-.89-.1-.89-.46s.37-.47,1.15-.47c2.78,0,6.09.16,7.34.16s4.57-.16,6.35-.16c.73,0,1.1.1,1.1.47s-.31.46-.73.46a8.22,8.22,0,0,0-1.47.16c-1.42.26-1.84,1.14-1.94,3-.11,1.66-.11,3.12-.11,11Z" transform="translate(-0.27 8.2)"/><path class="cls-2" d="M192,40.27c-.26,0-.36.11-.47.42l-2.83,7.43a9.89,9.89,0,0,0-.79,3.18c0,.93.48,1.61,2.1,1.61h.79c.63,0,.78.1.78.41s-.31.52-.89.52c-1.68,0-3.93-.15-5.56-.15-.57,0-3.46.15-6.18.15-.69,0-1-.1-1-.52s.21-.41.63-.41a13.75,13.75,0,0,0,1.62-.11c2.42-.31,3.41-2.08,4.46-4.68L197.8,15.47c.63-1.51.95-2.08,1.47-2.08s.79.46,1.31,1.66c1.26,2.86,9.65,24.08,13,32,2,4.68,3.51,5.41,4.61,5.67a11.36,11.36,0,0,0,2.2.21c.42,0,.69.05.69.41s-.48.52-2.42.52-5.71,0-9.91-.1c-.94-.05-1.57-.05-1.57-.42s.21-.41.73-.46a.86.86,0,0,0,.48-1.2l-4.2-11a.51.51,0,0,0-.52-.36Zm10.7-2.6c.26,0,.32-.16.26-.31l-4.72-12.85c-.05-.2-.1-.46-.26-.46s-.26.26-.31.46l-4.83,12.8c0,.2,0,.36.21.36Z" transform="translate(-0.27 8.2)"/><path class="cls-2" d="M224.79,29.61c0-7.9,0-9.36-.1-11s-.53-2.6-2.26-3a11.27,11.27,0,0,0-2-.15c-.58,0-.89-.11-.89-.47s.36-.47,1.15-.47c2.78,0,6.08.16,7.55.16,2.15,0,5.19-.16,7.61-.16,6.55,0,8.91,2.18,9.75,3a9,9,0,0,1,2.62,6.19c0,7.39-5.45,12.59-12.9,12.59a6.76,6.76,0,0,1-1.1-.06c-.26-.05-.63-.1-.63-.46s.37-.58,1.47-.58c2.94,0,7-3.27,7-8.58a10,10,0,0,0-3.1-7.8A8.37,8.37,0,0,0,231.66,17c-.26.11-.42.42-.42,1v20.8c0,4.79,0,8.9.27,11.13.15,1.46.47,2.6,2,2.81a23.09,23.09,0,0,0,2.68.21c.57,0,.83.15.83.41s-.41.52-1,.52c-3.46,0-6.77-.15-8.13-.15-1.21,0-4.51.15-6.61.15-.68,0-1.05-.15-1.05-.52s.21-.41.84-.41A8.84,8.84,0,0,0,223,52.7c1.05-.21,1.31-1.35,1.52-2.86.26-2.18.26-6.29.26-11.08Z" transform="translate(-0.27 8.2)"/><path class="cls-2" d="M258.1,40.27c-.26,0-.37.11-.47.42l-2.84,7.43A10.09,10.09,0,0,0,254,51.3c0,.93.47,1.61,2.09,1.61h.79c.63,0,.79.1.79.41s-.32.52-.89.52c-1.68,0-3.94-.15-5.56-.15-.58,0-3.46.15-6.19.15-.68,0-1-.1-1-.52s.21-.41.63-.41a13.92,13.92,0,0,0,1.63-.11c2.41-.31,3.41-2.08,4.46-4.68l13.16-32.65c.63-1.51.94-2.08,1.47-2.08s.78.46,1.31,1.66c1.26,2.86,9.65,24.08,13,32,2,4.68,3.52,5.41,4.62,5.67a11.22,11.22,0,0,0,2.2.21c.42,0,.68.05.68.41s-.47.52-2.41.52-5.72,0-9.91-.1c-.95-.05-1.58-.05-1.58-.42s.22-.41.74-.46a.85.85,0,0,0,.47-1.2l-4.19-11a.52.52,0,0,0-.53-.36Zm10.7-2.6c.26,0,.31-.16.26-.31l-4.72-12.85c0-.2-.11-.46-.26-.46s-.27.26-.32.46l-4.82,12.8c-.06.2,0,.36.21.36Z" transform="translate(-0.27 8.2)"/><path class="cls-2" d="M291.23,29.61c0-7.9,0-9.36-.11-11s-.52-2.61-2.25-3a11.19,11.19,0,0,0-2.05-.16c-.57,0-.89-.1-.89-.46s.37-.47,1.16-.47c2.78,0,6.08.16,7.55.16,1.62,0,4.93-.16,8.07-.16,6.56,0,15.32,0,21,5.93a18.5,18.5,0,0,1,5.09,13.21,20.53,20.53,0,0,1-5.72,14.5c-2.41,2.45-7.86,6.14-17.56,6.14-1.89,0-4-.15-6-.31s-3.82-.31-5.13-.31c-.58,0-1.73,0-3,.05s-2.57.1-3.62.1c-.68,0-1-.15-1-.52s.21-.41.84-.41a8.92,8.92,0,0,0,1.89-.21c1.05-.21,1.31-1.35,1.52-2.86.26-2.19.26-6.29.26-11.08Zm6.55,5.72c0,5.51.06,9.52.11,10.51.05,1.29.16,3.38.58,3.95.68,1,2.72,2.08,6.86,2.08,5.35,0,8.92-1,12.07-3.75,3.35-2.86,4.4-7.59,4.4-12.95,0-6.6-2.78-10.86-5-13C311.94,17.6,306,17,301.87,17a13.89,13.89,0,0,0-3.4.37.93.93,0,0,0-.63,1c-.06,1.77-.06,6.29-.06,10.4Z" transform="translate(-0.27 8.2)"/><path class="cls-2" d="M333.76,34.19c0-8.9,5.92-20.39,21.65-20.39,13.06,0,21.19,7.54,21.19,19.45s-8.39,21.32-21.71,21.32c-15.05,0-21.13-11.18-21.13-20.38m35.5,1c0-11.64-6.77-18.87-15.37-18.87-6,0-12.9,3.33-12.9,16.27,0,10.82,6,19.4,16.1,19.4,3.67,0,12.17-1.77,12.17-16.8" transform="translate(-0.27 8.2)"/><path class="cls-2" d="M390.88,31.9h.26c1.79-1.93,9.44-9.67,11-11.44s2.63-3,2.63-3.9c0-.58-.21-.94-.74-1s-.68-.21-.68-.52.26-.47.84-.47c1.1,0,4,.16,5.4.16,1.63,0,4.51-.16,6.14-.16.52,0,.89.1.89.47s-.27.46-.79.46a10.2,10.2,0,0,0-3,.58,16.53,16.53,0,0,0-5.66,3.9c-1.63,1.56-9.55,9.36-11.33,11.23,1.89,2.44,12.17,13.42,14.21,15.34,2.31,2.19,4.67,4.53,7.5,5.62a9.24,9.24,0,0,0,3.25.78c.37,0,.68.1.68.41s-.26.52-1.26.52h-4.56c-1.57,0-2.52,0-3.62-.1-2.83-.26-4.25-1.4-6.5-3.38s-12.64-14-13.74-15.55l-.58-.78h-.26v4.73c0,4.79,0,8.89.16,11.13.1,1.46.58,2.6,1.89,2.81a23,23,0,0,0,2.57.21c.42,0,.68.15.68.41s-.42.52-1,.52c-2.94,0-6.24-.15-7.55-.15s-4.51.15-6.61.15c-.68,0-1-.15-1-.52s.21-.41.84-.41a8.84,8.84,0,0,0,1.89-.21c1.05-.21,1.31-1.35,1.52-2.86.26-2.19.26-6.29.26-11.08V29.61c0-7.9,0-9.36-.1-11s-.52-2.61-2.26-3a11.07,11.07,0,0,0-2-.16c-.58,0-.89-.1-.89-.46s.37-.47,1.15-.47c2.78,0,6.08.16,7.34.16s4.56-.16,6.35-.16c.73,0,1.1.1,1.1.47s-.32.46-.74.46a8.21,8.21,0,0,0-1.46.16c-1.42.26-1.84,1.14-1.94,3-.11,1.66-.11,3.12-.11,11Z" transform="translate(-0.27 8.2)"/><path class="cls-2" d="M435.55,40.38a10.94,10.94,0,0,0-1.21-5.46c-.37-.84-7.39-12.28-9.23-15a12.63,12.63,0,0,0-3.62-3.8,5.39,5.39,0,0,0-2.2-.67c-.42,0-.79-.11-.79-.47s.37-.47,1-.47c.94,0,4.88.16,6.61.16,1.1,0,3.25-.16,5.61-.16.52,0,.79.16.79.47s-.37.36-1.16.57a.94.94,0,0,0-.73.94,4.69,4.69,0,0,0,.63,1.76c.73,1.56,8.07,14.1,8.91,15.55.53-1.24,7.13-12.69,7.87-14.3a6.78,6.78,0,0,0,.73-2.7,1.25,1.25,0,0,0-1.1-1.3c-.47-.11-.94-.21-.94-.52s.26-.47.89-.47c1.73,0,3.41.16,4.93.16,1.15,0,4.61-.16,5.61-.16.58,0,.94.1.94.42s-.42.52-1,.52a5.63,5.63,0,0,0-2.31.62A7.71,7.71,0,0,0,453,18.64a164.45,164.45,0,0,0-10,16.54,12.28,12.28,0,0,0-.79,5.2v4.26c0,.83,0,3,.16,5.2.11,1.51.58,2.65,2.15,2.86a23.31,23.31,0,0,0,2.62.21c.58,0,.84.15.84.41s-.42.52-1.1.52c-3.3,0-6.61-.15-8-.15s-4.62.15-6.56.15c-.73,0-1.15-.1-1.15-.52,0-.26.26-.41.84-.41a8.7,8.7,0,0,0,1.83-.21c1.05-.21,1.52-1.35,1.63-2.86.16-2.18.16-4.37.16-5.2Z" transform="translate(-0.27 8.2)"/><path class="cls-2" d="M463.74,40.27c-.26,0-.37.11-.47.42l-2.84,7.43a10.09,10.09,0,0,0-.78,3.18c0,.93.47,1.61,2.1,1.61h.78c.63,0,.79.1.79.41s-.32.52-.89.52c-1.68,0-3.94-.15-5.56-.15-.58,0-3.46.15-6.19.15-.68,0-1-.1-1-.52s.21-.41.63-.41a13.92,13.92,0,0,0,1.63-.11c2.41-.31,3.41-2.08,4.46-4.68l13.16-32.65c.63-1.51.94-2.08,1.47-2.08s.78.46,1.31,1.66c1.26,2.86,9.65,24.08,13,32,2,4.68,3.52,5.41,4.62,5.67a11.22,11.22,0,0,0,2.2.21c.42,0,.68.05.68.41s-.47.52-2.41.52-5.72,0-9.91-.1c-.95-.05-1.57-.05-1.57-.42s.21-.41.73-.46a.85.85,0,0,0,.47-1.2l-4.19-11a.52.52,0,0,0-.53-.36Zm10.7-2.6c.26,0,.31-.16.26-.31L470,24.51c-.05-.2-.11-.46-.26-.46s-.27.26-.32.46l-4.82,12.8c-.06.2,0,.36.21.36Z" transform="translate(-0.27 8.2)"/></svg>